<svg width="363" height="122" viewBox="0 0 363 122" fill="none" xmlns="http://www.w3.org/2000/svg">
<path d="M40.7234 39.2098C40.274 41.9067 39.1727 44.1541 37.4197 45.9521C35.6667 47.75 33.5092 49.076 30.9471 49.93C33.0147 50.2896 34.7228 51.3459 36.0713 53.0989C37.4197 54.8519 38.0939 56.9195 38.0939 59.3018C38.0939 60.021 38.0265 60.7177 37.8917 61.3919C37.4871 63.7742 36.4983 65.9317 34.9251 67.8645C33.3519 69.7524 31.2842 71.2581 28.7222 72.3819C26.205 73.4606 23.3957 74 20.2943 74H1.55073L9.84374 27.1411H27.7108C31.9809 27.1411 35.2397 28.0625 37.4871 29.9054C39.7795 31.7483 40.9257 34.1306 40.9257 37.0522C40.9257 37.7265 40.8583 38.4457 40.7234 39.2098ZM32.7675 40.1537C32.8574 39.5244 32.9024 39.0525 32.9024 38.7378C32.9024 36.9848 32.2956 35.6139 31.082 34.625C29.8683 33.6362 28.1603 33.1417 25.9578 33.1417H16.4512L14.024 47.0308H23.5306C26.0477 47.0308 28.1154 46.424 29.7335 45.2104C31.3966 43.9968 32.4079 42.3112 32.7675 40.1537ZM30.3403 60.5828C30.4302 59.8637 30.4752 59.3468 30.4752 59.0321C30.4752 57.1892 29.8009 55.7284 28.4525 54.6496C27.104 53.5709 25.3061 53.0315 23.0586 53.0315H12.9452L10.3157 67.9994H20.6988C23.3059 67.9994 25.4634 67.3476 27.1714 66.0441C28.8795 64.7406 29.9358 62.9202 30.3403 60.5828ZM60.2682 74.6068C57.1218 74.6068 54.3574 73.9551 51.9752 72.6515C49.5929 71.348 47.7275 69.5051 46.3791 67.1229C45.0755 64.7406 44.4238 62.0212 44.4238 58.9647C44.4238 54.7845 45.3902 50.9638 47.323 47.5028C49.3007 44.0418 51.9976 41.2999 55.4137 39.2772C58.8748 37.2545 62.7179 36.2432 66.943 36.2432C70.0894 36.2432 72.8763 36.9174 75.3035 38.2659C77.7307 39.5694 79.6186 41.4123 80.967 43.7945C82.3604 46.1319 83.0571 48.8513 83.0571 51.9527C83.0571 56.1329 82.0458 59.9536 80.0231 63.4146C78.0004 66.8756 75.2585 69.6175 71.7975 71.6402C68.3365 73.6179 64.4933 74.6068 60.2682 74.6068ZM61.2121 68.1342C63.7742 68.1342 66.1115 67.415 68.2241 65.9767C70.3816 64.4934 72.0672 62.5606 73.2808 60.1783C74.4944 57.7511 75.1012 55.1665 75.1012 52.4247C75.1012 49.3232 74.2247 46.9409 72.4717 45.2778C70.7187 43.5698 68.5162 42.7158 65.8643 42.7158C63.2573 42.7158 60.9199 43.4574 58.8523 44.9407C56.8296 46.3791 55.2339 48.3343 54.0653 50.8065C52.9416 53.2337 52.3797 55.8408 52.3797 58.6276C52.3797 61.6391 53.1888 63.9765 54.8069 65.6396C56.47 67.3027 58.6051 68.1342 61.2121 68.1342ZM103.263 74.6068C100.117 74.6068 97.3527 73.9551 94.9704 72.6515C92.5882 71.348 90.7228 69.5051 89.3743 67.1229C88.0708 64.7406 87.4191 62.0212 87.4191 58.9647C87.4191 54.7845 88.3855 50.9638 90.3182 47.5028C92.296 44.0418 94.9929 41.2999 98.409 39.2772C101.87 37.2545 105.713 36.2432 109.938 36.2432C113.085 36.2432 115.872 36.9174 118.299 38.2659C120.726 39.5694 122.614 41.4123 123.962 43.7945C125.356 46.1319 126.052 48.8513 126.052 51.9527C126.052 56.1329 125.041 59.9536 123.018 63.4146C120.996 66.8756 118.254 69.6175 114.793 71.6402C111.332 73.6179 107.489 74.6068 103.263 74.6068ZM104.207 68.1342C106.769 68.1342 109.107 67.415 111.219 65.9767C113.377 64.4934 115.062 62.5606 116.276 60.1783C117.49 57.7511 118.096 55.1665 118.096 52.4247C118.096 49.3232 117.22 46.9409 115.467 45.2778C113.714 43.5698 111.512 42.7158 108.86 42.7158C106.253 42.7158 103.915 43.4574 101.848 44.9407C99.8249 46.3791 98.2292 48.3343 97.0605 50.8065C95.9368 53.2337 95.375 55.8408 95.375 58.6276C95.375 61.6391 96.184 63.9765 97.8022 65.6396C99.4653 67.3027 101.6 68.1342 104.207 68.1342ZM147.944 55.4587L161.833 74H151.45L140.528 58.0208L137.696 74H130.01L138.842 24.107H146.528L141.404 53.0315L157.721 36.85H168.373L147.944 55.4587ZM176.108 68.1342H191.952L190.873 74H167.343L175.636 27.1411H183.322L176.108 68.1342ZM219.955 36.2432C224.585 36.2432 228.271 37.5467 231.012 40.1537C233.799 42.7607 235.193 46.2667 235.193 50.6717C235.193 51.7055 235.08 52.9416 234.856 54.3799C234.676 55.3688 234.361 56.5824 233.912 58.0208H205.527C205.482 58.3354 205.459 58.8074 205.459 59.4367C205.459 62.0886 206.268 64.2012 207.886 65.7744C209.55 67.3476 211.707 68.1342 214.359 68.1342C218.539 68.1342 221.753 66.4037 224 62.9426H232.294C230.585 66.3587 228.068 69.168 224.742 71.3705C221.416 73.528 217.573 74.6068 213.213 74.6068C210.111 74.6068 207.392 74 205.055 72.7864C202.717 71.5728 200.897 69.8423 199.593 67.5948C198.29 65.3024 197.638 62.628 197.638 59.5715C197.638 58.268 197.773 56.8746 198.043 55.3913C198.717 51.5706 200.088 48.222 202.155 45.3453C204.223 42.4236 206.785 40.1762 209.842 38.603C212.943 37.0298 216.314 36.2432 219.955 36.2432ZM227.169 52.4921C227.259 51.683 227.304 51.0987 227.304 50.7391C227.304 48.2669 226.473 46.3117 224.81 44.8733C223.191 43.4349 221.079 42.7158 218.472 42.7158C215.73 42.7158 213.258 43.5923 211.055 45.3453C208.853 47.0983 207.347 49.4805 206.538 52.4921H227.169ZM239.655 55.2564C240.329 51.5257 241.678 48.222 243.701 45.3453C245.768 42.4686 248.285 40.2436 251.252 38.6704C254.219 37.0522 257.32 36.2432 260.556 36.2432C263.478 36.2432 265.928 36.8275 267.905 37.9962C269.883 39.1199 271.366 40.5358 272.355 42.2438L273.299 36.85H281.053L274.513 74H266.759L267.771 68.4713C266.152 70.2243 264.107 71.6851 261.635 72.8538C259.208 74.0225 256.556 74.6068 253.679 74.6068C250.892 74.6068 248.398 73.9775 246.195 72.719C244.038 71.4604 242.33 69.6849 241.071 67.3926C239.858 65.0552 239.251 62.3808 239.251 59.3692C239.251 58.0208 239.386 56.6498 239.655 55.2564ZM270.063 55.3913C270.243 54.5373 270.333 53.6158 270.333 52.6269C270.333 49.6154 269.434 47.2556 267.636 45.5475C265.883 43.7945 263.68 42.918 261.028 42.918C259.051 42.918 257.118 43.4125 255.23 44.4013C253.342 45.3453 251.701 46.7611 250.308 48.649C248.915 50.4919 247.993 52.6944 247.544 55.2564C247.364 56.1105 247.274 57.0319 247.274 58.0208C247.274 61.0773 248.151 63.5045 249.904 65.3024C251.701 67.0554 253.926 67.9319 256.578 67.9319C258.556 67.9319 260.489 67.4375 262.377 66.4486C264.265 65.4598 265.905 64.0214 267.299 62.1336C268.692 60.2008 269.613 57.9533 270.063 55.3913ZM298.295 74.6068C295.733 74.6068 293.396 74.1798 291.283 73.3258C289.171 72.4268 287.508 71.1907 286.294 69.6175C285.08 67.9994 284.474 66.1565 284.474 64.0888C284.474 63.7292 284.519 63.2348 284.608 62.6055H292.092C291.913 64.3136 292.429 65.7295 293.643 66.8532C294.857 67.9769 296.565 68.5387 298.767 68.5387C300.925 68.5387 302.7 68.1567 304.094 67.3926C305.487 66.6284 306.184 65.5047 306.184 64.0214C306.184 62.7628 305.599 61.7515 304.431 60.9874C303.307 60.2233 301.487 59.3692 298.969 58.4253C296.587 57.4814 294.654 56.6049 293.171 55.7958C291.688 54.9867 290.407 53.8855 289.328 52.4921C288.249 51.0537 287.71 49.2783 287.71 47.1657C287.71 45.0081 288.317 43.1203 289.53 41.5022C290.789 39.8391 292.519 38.558 294.722 37.6591C296.969 36.7151 299.531 36.2432 302.408 36.2432C305.015 36.2432 307.33 36.6927 309.353 37.5916C311.42 38.4457 313.016 39.6817 314.14 41.2999C315.308 42.8731 315.893 44.6935 315.893 46.7611C315.893 47.3904 315.87 47.8624 315.825 48.177H308.544C308.723 46.424 308.206 45.0081 306.993 43.9294C305.824 42.8506 304.139 42.3112 301.936 42.3112C300.003 42.3112 298.43 42.7158 297.216 43.5248C296.048 44.3339 295.463 45.4352 295.463 46.8286C295.463 48.222 296.07 49.3457 297.284 50.1997C298.498 51.0088 300.363 51.9078 302.88 52.8966C305.172 53.7956 307.038 54.6496 308.476 55.4587C309.914 56.2678 311.151 57.3465 312.184 58.695C313.218 60.0435 313.735 61.729 313.735 63.7517C313.735 65.9542 313.061 67.887 311.712 69.5501C310.409 71.1682 308.588 72.4268 306.251 73.3258C303.914 74.1798 301.262 74.6068 298.295 74.6068ZM346.515 36.2432C350.245 36.2432 353.235 37.2995 355.482 39.412C357.729 41.4797 358.853 44.4463 358.853 48.3119C358.853 49.3457 358.741 50.6043 358.516 52.0876L354.606 74H346.987L350.695 53.2337C350.875 51.9752 350.965 51.0762 350.965 50.5368C350.965 48.0647 350.268 46.1768 348.875 44.8733C347.526 43.5698 345.638 42.918 343.211 42.918C340.289 42.918 337.817 43.817 335.795 45.615C333.817 47.368 332.558 49.9075 332.019 53.2337V53.0989L328.311 74H320.624L329.457 24.107H337.143L334.109 41.165C335.682 39.5918 337.548 38.3782 339.705 37.5242C341.863 36.6702 344.132 36.2432 346.515 36.2432Z" fill="#3B2A6F"/>
<path d="M271.808 104.456H262.496L260.896 109H257.088L265.056 86.728H269.28L277.248 109H273.408L271.808 104.456ZM270.784 101.48L267.168 91.144L263.52 101.48H270.784ZM279.497 100.104C279.497 98.3333 279.859 96.7653 280.585 95.4C281.331 94.0347 282.334 92.9787 283.593 92.232C284.873 91.464 286.291 91.08 287.849 91.08C289.001 91.08 290.131 91.336 291.241 91.848C292.371 92.3387 293.267 93 293.929 93.832V85.32H297.609V109H293.929V106.344C293.331 107.197 292.499 107.901 291.433 108.456C290.387 109.011 289.182 109.288 287.817 109.288C286.281 109.288 284.873 108.904 283.593 108.136C282.334 107.347 281.331 106.259 280.585 104.872C279.859 103.464 279.497 101.875 279.497 100.104ZM293.929 100.168C293.929 98.952 293.673 97.896 293.161 97C292.67 96.104 292.019 95.4213 291.209 94.952C290.398 94.4827 289.523 94.248 288.585 94.248C287.646 94.248 286.771 94.4827 285.961 94.952C285.15 95.4 284.489 96.072 283.977 96.968C283.486 97.8427 283.241 98.888 283.241 100.104C283.241 101.32 283.486 102.387 283.977 103.304C284.489 104.221 285.15 104.925 285.961 105.416C286.793 105.885 287.667 106.12 288.585 106.12C289.523 106.12 290.398 105.885 291.209 105.416C292.019 104.947 292.67 104.264 293.161 103.368C293.673 102.451 293.929 101.384 293.929 100.168ZM323.744 91.08C325.131 91.08 326.368 91.368 327.456 91.944C328.565 92.52 329.429 93.3733 330.048 94.504C330.688 95.6347 331.008 97 331.008 98.6V109H327.392V99.144C327.392 97.5653 326.997 96.36 326.208 95.528C325.419 94.6747 324.341 94.248 322.976 94.248C321.611 94.248 320.523 94.6747 319.712 95.528C318.923 96.36 318.528 97.5653 318.528 99.144V109H314.912V99.144C314.912 97.5653 314.517 96.36 313.728 95.528C312.939 94.6747 311.861 94.248 310.496 94.248C309.131 94.248 308.043 94.6747 307.232 95.528C306.443 96.36 306.048 97.5653 306.048 99.144V109H302.4V91.368H306.048V93.384C306.645 92.6587 307.403 92.0933 308.32 91.688C309.237 91.2827 310.219 91.08 311.264 91.08C312.672 91.08 313.931 91.3787 315.04 91.976C316.149 92.5733 317.003 93.4373 317.6 94.568C318.133 93.5013 318.965 92.6587 320.096 92.04C321.227 91.4 322.443 91.08 323.744 91.08ZM337.506 89.032C336.845 89.032 336.29 88.808 335.842 88.36C335.394 87.912 335.17 87.3573 335.17 86.696C335.17 86.0347 335.394 85.48 335.842 85.032C336.29 84.584 336.845 84.36 337.506 84.36C338.146 84.36 338.69 84.584 339.138 85.032C339.586 85.48 339.81 86.0347 339.81 86.696C339.81 87.3573 339.586 87.912 339.138 88.36C338.69 88.808 338.146 89.032 337.506 89.032ZM339.298 91.368V109H335.65V91.368H339.298ZM352.984 91.08C354.37 91.08 355.608 91.368 356.696 91.944C357.805 92.52 358.669 93.3733 359.288 94.504C359.906 95.6347 360.216 97 360.216 98.6V109H356.6V99.144C356.6 97.5653 356.205 96.36 355.416 95.528C354.626 94.6747 353.549 94.248 352.184 94.248C350.818 94.248 349.73 94.6747 348.92 95.528C348.13 96.36 347.736 97.5653 347.736 99.144V109H344.088V91.368H347.736V93.384C348.333 92.6587 349.09 92.0933 350.008 91.688C350.946 91.2827 351.938 91.08 352.984 91.08Z" fill="#3B2A6F"/>
</svg>
